<?xml version="1.0" encoding="UTF-8" standalone="no"?>
<!DOCTYPE svg PUBLIC "-//W3C//DTD SVG 1.1//EN"
 "http://www.w3.org/Graphics/SVG/1.1/DTD/svg11.dtd">
<!-- Generated by graphviz version 2.47.0 (20210316.0004)
 -->
<!-- Title: dependencies Pages: 1 -->
<svg width="977pt" height="284pt"
 viewBox="0.00 0.00 977.00 284.00" xmlns="http://www.w3.org/2000/svg" xmlns:xlink="http://www.w3.org/1999/xlink">
<g id="graph0" class="graph" transform="scale(1 1) rotate(0) translate(4 280)">
<title>dependencies</title>
<polygon fill="white" stroke="transparent" points="-4,4 -4,-280 973,-280 973,4 -4,4"/>
<text text-anchor="start" x="463.51" y="-42.4" font-family="Times-12" font-weight="bold" font-size="14.00">Legend</text>
<polygon fill="#ffffb3" stroke="transparent" points="250.5,-10 250.5,-30 270.5,-30 270.5,-10 250.5,-10"/>
<text text-anchor="start" x="274.13" y="-15.4" font-family="Times-12" font-size="14.00"> &#160;Declarations</text>
<polygon fill="#8dd3c7" stroke="transparent" points="363.5,-10 363.5,-30 383.5,-30 383.5,-10 363.5,-10"/>
<text text-anchor="start" x="387.23" y="-15.4" font-family="Times-12" font-size="14.00"> &#160;Module</text>
<polygon fill="#80b1d3" stroke="transparent" points="449.5,-10 449.5,-30 469.5,-30 469.5,-10 449.5,-10"/>
<text text-anchor="start" x="473.28" y="-15.4" font-family="Times-12" font-size="14.00"> &#160;Bootstrap</text>
<polygon fill="#fdb462" stroke="transparent" points="546.5,-10 546.5,-30 566.5,-30 566.5,-10 546.5,-10"/>
<text text-anchor="start" x="570.17" y="-15.4" font-family="Times-12" font-size="14.00"> &#160;Providers</text>
<polygon fill="#fb8072" stroke="transparent" points="642.5,-10 642.5,-30 662.5,-30 662.5,-10 642.5,-10"/>
<text text-anchor="start" x="666.23" y="-15.4" font-family="Times-12" font-size="14.00"> &#160;Exports</text>
<g id="clust1" class="cluster">
<title>cluster_TemplatePlaygroundModule</title>
<polygon fill="none" stroke="black" stroke-dasharray="1,5" points="8,-70 8,-268 961,-268 961,-70 8,-70"/>
</g>
<g id="clust7" class="cluster">
<title>cluster_TemplatePlaygroundModule_providers</title>
<polygon fill="none" stroke="black" points="374,-78 374,-130 953,-130 953,-78 374,-78"/>
</g>
<g id="clust6" class="cluster">
<title>cluster_TemplatePlaygroundModule_bootstrap</title>
<polygon fill="none" stroke="black" points="353,-208 353,-260 571,-260 571,-208 353,-208"/>
</g>
<g id="clust4" class="cluster">
<title>cluster_TemplatePlaygroundModule_imports</title>
<polygon fill="none" stroke="black" points="238,-78 238,-130 366,-130 366,-78 238,-78"/>
</g>
<g id="clust2" class="cluster">
<title>cluster_TemplatePlaygroundModule_declarations</title>
<polygon fill="none" stroke="black" points="16,-78 16,-130 230,-130 230,-78 16,-78"/>
</g>
<!-- TemplatePlaygroundComponent -->
<g id="node1" class="node">
<title>TemplatePlaygroundComponent</title>
<polygon fill="#ffffb3" stroke="black" points="222.25,-122 23.75,-122 23.75,-86 222.25,-86 222.25,-122"/>
<text text-anchor="middle" x="123" y="-99.8" font-family="Times,serif" font-size="14.00">TemplatePlaygroundComponent</text>
</g>
<!-- TemplatePlaygroundModule -->
<g id="node2" class="node">
<title>TemplatePlaygroundModule</title>
<polygon fill="#8dd3c7" stroke="black" points="550.47,-187 547.47,-191 526.47,-191 523.47,-187 373.53,-187 373.53,-151 550.47,-151 550.47,-187"/>
<text text-anchor="middle" x="462" y="-164.8" font-family="Times,serif" font-size="14.00">TemplatePlaygroundModule</text>
</g>
<!-- TemplatePlaygroundComponent&#45;&gt;TemplatePlaygroundModule -->
<g id="edge1" class="edge">
<title>TemplatePlaygroundComponent&#45;&gt;TemplatePlaygroundModule</title>
<path fill="none" stroke="black" d="M123,-122.11C123,-141.34 123,-169 123,-169 123,-169 363.37,-169 363.37,-169"/>
<polygon fill="black" stroke="black" points="363.37,-172.5 373.37,-169 363.37,-165.5 363.37,-172.5"/>
</g>
<!-- TemplatePlaygroundComponent  -->
<g id="node4" class="node">
<title>TemplatePlaygroundComponent </title>
<polygon fill="#80b1d3" stroke="black" points="563.25,-252 360.75,-252 360.75,-216 563.25,-216 563.25,-252"/>
<text text-anchor="middle" x="462" y="-229.8" font-family="Times,serif" font-size="14.00">TemplatePlaygroundComponent </text>
</g>
<!-- TemplatePlaygroundModule&#45;&gt;TemplatePlaygroundComponent  -->
<g id="edge3" class="edge">
<title>TemplatePlaygroundModule&#45;&gt;TemplatePlaygroundComponent </title>
<path fill="none" stroke="black" stroke-dasharray="1,5" d="M462,-187.11C462,-187.11 462,-205.99 462,-205.99"/>
<polygon fill="black" stroke="black" points="458.5,-205.99 462,-215.99 465.5,-205.99 458.5,-205.99"/>
</g>
<!-- CommonModule -->
<g id="node3" class="node">
<title>CommonModule</title>
<polygon fill="#8dd3c7" stroke="black" points="357.67,-122 354.67,-126 333.67,-126 330.67,-122 246.33,-122 246.33,-86 357.67,-86 357.67,-122"/>
<text text-anchor="middle" x="302" y="-99.8" font-family="Times,serif" font-size="14.00">CommonModule</text>
</g>
<!-- CommonModule&#45;&gt;TemplatePlaygroundModule -->
<g id="edge2" class="edge">
<title>CommonModule&#45;&gt;TemplatePlaygroundModule</title>
<path fill="none" stroke="black" d="M357.97,-104C369.35,-104 377.92,-104 377.92,-104 377.92,-104 377.92,-140.89 377.92,-140.89"/>
<polygon fill="black" stroke="black" points="374.42,-140.89 377.92,-150.89 381.42,-140.89 374.42,-140.89"/>
</g>
<!-- HbsRenderService -->
<g id="node5" class="node">
<title>HbsRenderService</title>
<ellipse fill="#fdb462" stroke="black" cx="862" cy="-104" rx="83.37" ry="18"/>
<text text-anchor="middle" x="862" y="-99.8" font-family="Times,serif" font-size="14.00">HbsRenderService</text>
</g>
<!-- HbsRenderService&#45;&gt;TemplatePlaygroundModule -->
<g id="edge4" class="edge">
<title>HbsRenderService&#45;&gt;TemplatePlaygroundModule</title>
<path fill="none" stroke="black" d="M862,-122.11C862,-141.34 862,-169 862,-169 862,-169 560.77,-169 560.77,-169"/>
<polygon fill="black" stroke="black" points="560.77,-165.5 550.77,-169 560.77,-172.5 560.77,-165.5"/>
</g>
<!-- TemplateEditorService -->
<g id="node6" class="node">
<title>TemplateEditorService</title>
<ellipse fill="#fdb462" stroke="black" cx="660" cy="-104" rx="100.7" ry="18"/>
<text text-anchor="middle" x="660" y="-99.8" font-family="Times,serif" font-size="14.00">TemplateEditorService</text>
</g>
<!-- TemplateEditorService&#45;&gt;TemplatePlaygroundModule -->
<g id="edge5" class="edge">
<title>TemplateEditorService&#45;&gt;TemplatePlaygroundModule</title>
<path fill="none" stroke="black" d="M559.15,-104C551.15,-104 546.08,-104 546.08,-104 546.08,-104 546.08,-140.89 546.08,-140.89"/>
<polygon fill="black" stroke="black" points="542.59,-140.89 546.08,-150.89 549.59,-140.89 542.59,-140.89"/>
</g>
<!-- ZipExportService -->
<g id="node7" class="node">
<title>ZipExportService</title>
<ellipse fill="#fdb462" stroke="black" cx="462" cy="-104" rx="79.87" ry="18"/>
<text text-anchor="middle" x="462" y="-99.8" font-family="Times,serif" font-size="14.00">ZipExportService</text>
</g>
<!-- ZipExportService&#45;&gt;TemplatePlaygroundModule -->
<g id="edge6" class="edge">
<title>ZipExportService&#45;&gt;TemplatePlaygroundModule</title>
<path fill="none" stroke="black" d="M462,-122.11C462,-122.11 462,-140.99 462,-140.99"/>
<polygon fill="black" stroke="black" points="458.5,-140.99 462,-150.99 465.5,-140.99 458.5,-140.99"/>
</g>
</g>
</svg>
