<?xml version="1.0" encoding="UTF-8" standalone="no"?>
<!DOCTYPE svg PUBLIC "-//W3C//DTD SVG 1.1//EN"
 "http://www.w3.org/Graphics/SVG/1.1/DTD/svg11.dtd">
<!-- Generated by graphviz version 2.47.0 (20210316.0004)
 -->
<!-- Title: dependencies Pages: 1 -->
<svg width="504pt" height="284pt"
 viewBox="0.00 0.00 504.00 284.00" xmlns="http://www.w3.org/2000/svg" xmlns:xlink="http://www.w3.org/1999/xlink">
<g id="graph0" class="graph" transform="scale(1 1) rotate(0) translate(4 280)">
<title>dependencies</title>
<polygon fill="white" stroke="transparent" points="-4,4 -4,-280 500,-280 500,4 -4,4"/>
<text text-anchor="start" x="227.01" y="-42.4" font-family="Times-12" font-weight="bold" font-size="14.00">Legend</text>
<polygon fill="#ffffb3" stroke="transparent" points="14,-10 14,-30 34,-30 34,-10 14,-10"/>
<text text-anchor="start" x="37.63" y="-15.4" font-family="Times-12" font-size="14.00"> &#160;Declarations</text>
<polygon fill="#8dd3c7" stroke="transparent" points="127,-10 127,-30 147,-30 147,-10 127,-10"/>
<text text-anchor="start" x="150.73" y="-15.4" font-family="Times-12" font-size="14.00"> &#160;Module</text>
<polygon fill="#80b1d3" stroke="transparent" points="213,-10 213,-30 233,-30 233,-10 213,-10"/>
<text text-anchor="start" x="236.78" y="-15.4" font-family="Times-12" font-size="14.00"> &#160;Bootstrap</text>
<polygon fill="#fdb462" stroke="transparent" points="310,-10 310,-30 330,-30 330,-10 310,-10"/>
<text text-anchor="start" x="333.67" y="-15.4" font-family="Times-12" font-size="14.00"> &#160;Providers</text>
<polygon fill="#fb8072" stroke="transparent" points="406,-10 406,-30 426,-30 426,-10 406,-10"/>
<text text-anchor="start" x="429.73" y="-15.4" font-family="Times-12" font-size="14.00"> &#160;Exports</text>
<g id="clust1" class="cluster">
<title>cluster_AuthModule</title>
<polygon fill="none" stroke="black" stroke-dasharray="1,5" points="16,-70 16,-268 480,-268 480,-70 16,-70"/>
</g>
<g id="clust6" class="cluster">
<title>cluster_AuthModule_providers</title>
<polygon fill="none" stroke="black" points="24,-78 24,-130 472,-130 472,-78 24,-78"/>
</g>
<g id="clust4" class="cluster">
<title>cluster_AuthModule_exports</title>
<polygon fill="none" stroke="black" points="141,-208 141,-260 373,-260 373,-208 141,-208"/>
</g>
<!-- AuthService  -->
<g id="node1" class="node">
<title>AuthService </title>
<polygon fill="#fb8072" stroke="black" points="364.98,-252 275.02,-252 275.02,-216 364.98,-216 364.98,-252"/>
<text text-anchor="middle" x="320" y="-229.8" font-family="Times,serif" font-size="14.00">AuthService </text>
</g>
<!-- WsAuthService  -->
<g id="node2" class="node">
<title>WsAuthService </title>
<polygon fill="#fb8072" stroke="black" points="257.13,-252 148.87,-252 148.87,-216 257.13,-216 257.13,-252"/>
<text text-anchor="middle" x="203" y="-229.8" font-family="Times,serif" font-size="14.00">WsAuthService </text>
</g>
<!-- AuthModule -->
<g id="node3" class="node">
<title>AuthModule</title>
<polygon fill="#8dd3c7" stroke="black" points="304.55,-187 301.55,-191 280.55,-191 277.55,-187 217.45,-187 217.45,-151 304.55,-151 304.55,-187"/>
<text text-anchor="middle" x="261" y="-164.8" font-family="Times,serif" font-size="14.00">AuthModule</text>
</g>
<!-- AuthModule&#45;&gt;AuthService  -->
<g id="edge1" class="edge">
<title>AuthModule&#45;&gt;AuthService </title>
<path fill="none" stroke="black" stroke-dasharray="5,2" d="M290.02,-187.11C290.02,-187.11 290.02,-205.99 290.02,-205.99"/>
<polygon fill="black" stroke="black" points="286.52,-205.99 290.02,-215.99 293.52,-205.99 286.52,-205.99"/>
</g>
<!-- AuthModule&#45;&gt;WsAuthService  -->
<g id="edge2" class="edge">
<title>AuthModule&#45;&gt;WsAuthService </title>
<path fill="none" stroke="black" stroke-dasharray="5,2" d="M237.15,-187.11C237.15,-187.11 237.15,-205.99 237.15,-205.99"/>
<polygon fill="black" stroke="black" points="233.65,-205.99 237.15,-215.99 240.65,-205.99 233.65,-205.99"/>
</g>
<!-- AuthService -->
<g id="node4" class="node">
<title>AuthService</title>
<ellipse fill="#fdb462" stroke="black" cx="405" cy="-104" rx="59.11" ry="18"/>
<text text-anchor="middle" x="405" y="-99.8" font-family="Times,serif" font-size="14.00">AuthService</text>
</g>
<!-- AuthService&#45;&gt;AuthModule -->
<g id="edge3" class="edge">
<title>AuthService&#45;&gt;AuthModule</title>
<path fill="none" stroke="black" d="M355.22,-113.87C355.22,-132.06 355.22,-169 355.22,-169 355.22,-169 314.8,-169 314.8,-169"/>
<polygon fill="black" stroke="black" points="314.8,-165.5 304.8,-169 314.8,-172.5 314.8,-165.5"/>
</g>
<!-- PrismaService -->
<g id="node5" class="node">
<title>PrismaService</title>
<ellipse fill="#fdb462" stroke="black" cx="261" cy="-104" rx="66.63" ry="18"/>
<text text-anchor="middle" x="261" y="-99.8" font-family="Times,serif" font-size="14.00">PrismaService</text>
</g>
<!-- PrismaService&#45;&gt;AuthModule -->
<g id="edge4" class="edge">
<title>PrismaService&#45;&gt;AuthModule</title>
<path fill="none" stroke="black" d="M261,-122.11C261,-122.11 261,-140.99 261,-140.99"/>
<polygon fill="black" stroke="black" points="257.5,-140.99 261,-150.99 264.5,-140.99 257.5,-140.99"/>
</g>
<!-- WsAuthService -->
<g id="node6" class="node">
<title>WsAuthService</title>
<ellipse fill="#fdb462" stroke="black" cx="104" cy="-104" rx="72.35" ry="18"/>
<text text-anchor="middle" x="104" y="-99.8" font-family="Times,serif" font-size="14.00">WsAuthService</text>
</g>
<!-- WsAuthService&#45;&gt;AuthModule -->
<g id="edge5" class="edge">
<title>WsAuthService&#45;&gt;AuthModule</title>
<path fill="none" stroke="black" d="M162.55,-114.73C162.55,-133.2 162.55,-169 162.55,-169 162.55,-169 207.25,-169 207.25,-169"/>
<polygon fill="black" stroke="black" points="207.25,-172.5 217.25,-169 207.25,-165.5 207.25,-172.5"/>
</g>
</g>
</svg>
