<?xml version="1.0" encoding="UTF-8" standalone="no"?>
<!DOCTYPE svg PUBLIC "-//W3C//DTD SVG 1.1//EN"
 "http://www.w3.org/Graphics/SVG/1.1/DTD/svg11.dtd">
<!-- Generated by graphviz version 2.47.0 (20210316.0004)
 -->
<!-- Title: dependencies Pages: 1 -->
<svg width="1495pt" height="211pt"
 viewBox="0.00 0.00 1495.00 211.00" xmlns="http://www.w3.org/2000/svg" xmlns:xlink="http://www.w3.org/1999/xlink">
<g id="graph0" class="graph" transform="scale(1 1) rotate(0) translate(4 207)">
<title>dependencies</title>
<polygon fill="white" stroke="transparent" points="-4,4 -4,-207 1491,-207 1491,4 -4,4"/>
<text text-anchor="start" x="722.51" y="-42.4" font-family="Times-12" font-weight="bold" font-size="14.00">Legend</text>
<polygon fill="#ffffb3" stroke="transparent" points="509.5,-10 509.5,-30 529.5,-30 529.5,-10 509.5,-10"/>
<text text-anchor="start" x="533.13" y="-15.4" font-family="Times-12" font-size="14.00"> &#160;Declarations</text>
<polygon fill="#8dd3c7" stroke="transparent" points="622.5,-10 622.5,-30 642.5,-30 642.5,-10 622.5,-10"/>
<text text-anchor="start" x="646.23" y="-15.4" font-family="Times-12" font-size="14.00"> &#160;Module</text>
<polygon fill="#80b1d3" stroke="transparent" points="708.5,-10 708.5,-30 728.5,-30 728.5,-10 708.5,-10"/>
<text text-anchor="start" x="732.28" y="-15.4" font-family="Times-12" font-size="14.00"> &#160;Bootstrap</text>
<polygon fill="#fdb462" stroke="transparent" points="805.5,-10 805.5,-30 825.5,-30 825.5,-10 805.5,-10"/>
<text text-anchor="start" x="829.17" y="-15.4" font-family="Times-12" font-size="14.00"> &#160;Providers</text>
<polygon fill="#fb8072" stroke="transparent" points="901.5,-10 901.5,-30 921.5,-30 921.5,-10 901.5,-10"/>
<text text-anchor="start" x="925.23" y="-15.4" font-family="Times-12" font-size="14.00"> &#160;Exports</text>
<g id="clust1" class="cluster">
<title>cluster_AppModule</title>
<polygon fill="none" stroke="black" stroke-dasharray="1,5" points="8,-70 8,-195 1479,-195 1479,-70 8,-70"/>
</g>
<g id="clust6" class="cluster">
<title>cluster_AppModule_providers</title>
<polygon fill="none" stroke="black" points="1341,-78 1341,-130 1471,-130 1471,-78 1341,-78"/>
</g>
<g id="clust3" class="cluster">
<title>cluster_AppModule_imports</title>
<polygon fill="none" stroke="black" points="16,-78 16,-130 1333,-130 1333,-78 16,-78"/>
</g>
<!-- AuthModule -->
<g id="node1" class="node">
<title>AuthModule</title>
<polygon fill="#8dd3c7" stroke="black" points="1324.55,-122 1321.55,-126 1300.55,-126 1297.55,-122 1237.45,-122 1237.45,-86 1324.55,-86 1324.55,-122"/>
<text text-anchor="middle" x="1281" y="-99.8" font-family="Times,serif" font-size="14.00">AuthModule</text>
</g>
<!-- AppModule -->
<g id="node12" class="node">
<title>AppModule</title>
<polygon fill="#8dd3c7" stroke="black" points="857.66,-187 854.66,-191 833.66,-191 830.66,-187 774.34,-187 774.34,-151 857.66,-151 857.66,-187"/>
<text text-anchor="middle" x="816" y="-164.8" font-family="Times,serif" font-size="14.00">AppModule</text>
</g>
<!-- AuthModule&#45;&gt;AppModule -->
<g id="edge1" class="edge">
<title>AuthModule&#45;&gt;AppModule</title>
<path fill="none" stroke="black" d="M1295.59,-122.04C1295.59,-143.66 1295.59,-177 1295.59,-177 1295.59,-177 867.72,-177 867.72,-177"/>
<polygon fill="black" stroke="black" points="867.72,-173.5 857.72,-177 867.72,-180.5 867.72,-173.5"/>
</g>
<!-- AuthModule&#45;&gt;AppModule -->
<g id="edge2" class="edge">
<title>AuthModule&#45;&gt;AppModule</title>
<path fill="none" stroke="black" d="M1266.41,-122.22C1266.41,-142.37 1266.41,-172 1266.41,-172 1266.41,-172 867.97,-172 867.97,-172"/>
<polygon fill="black" stroke="black" points="867.97,-168.5 857.97,-172 867.97,-175.5 867.97,-168.5"/>
</g>
<!-- BoardModule -->
<g id="node2" class="node">
<title>BoardModule</title>
<polygon fill="#8dd3c7" stroke="black" points="1218.76,-122 1215.76,-126 1194.76,-126 1191.76,-122 1125.24,-122 1125.24,-86 1218.76,-86 1218.76,-122"/>
<text text-anchor="middle" x="1172" y="-99.8" font-family="Times,serif" font-size="14.00">BoardModule</text>
</g>
<!-- BoardModule&#45;&gt;AppModule -->
<g id="edge3" class="edge">
<title>BoardModule&#45;&gt;AppModule</title>
<path fill="none" stroke="black" d="M1172,-122.22C1172,-140.83 1172,-167 1172,-167 1172,-167 867.88,-167 867.88,-167"/>
<polygon fill="black" stroke="black" points="867.88,-163.5 857.88,-167 867.88,-170.5 867.88,-163.5"/>
</g>
<!-- CardModule -->
<g id="node3" class="node">
<title>CardModule</title>
<polygon fill="#8dd3c7" stroke="black" points="1107.26,-122 1104.26,-126 1083.26,-126 1080.26,-122 1020.74,-122 1020.74,-86 1107.26,-86 1107.26,-122"/>
<text text-anchor="middle" x="1064" y="-99.8" font-family="Times,serif" font-size="14.00">CardModule</text>
</g>
<!-- CardModule&#45;&gt;AppModule -->
<g id="edge4" class="edge">
<title>CardModule&#45;&gt;AppModule</title>
<path fill="none" stroke="black" d="M1064,-122.03C1064,-139.06 1064,-162 1064,-162 1064,-162 867.79,-162 867.79,-162"/>
<polygon fill="black" stroke="black" points="867.79,-158.5 857.79,-162 867.79,-165.5 867.79,-158.5"/>
</g>
<!-- ChecklistModule -->
<g id="node4" class="node">
<title>ChecklistModule</title>
<polygon fill="#8dd3c7" stroke="black" points="1002.43,-122 999.43,-126 978.43,-126 975.43,-122 889.57,-122 889.57,-86 1002.43,-86 1002.43,-122"/>
<text text-anchor="middle" x="946" y="-99.8" font-family="Times,serif" font-size="14.00">ChecklistModule</text>
</g>
<!-- ChecklistModule&#45;&gt;AppModule -->
<g id="edge5" class="edge">
<title>ChecklistModule&#45;&gt;AppModule</title>
<path fill="none" stroke="black" d="M946,-122.24C946,-137.57 946,-157 946,-157 946,-157 867.85,-157 867.85,-157"/>
<polygon fill="black" stroke="black" points="867.85,-153.5 857.85,-157 867.85,-160.5 867.85,-153.5"/>
</g>
<!-- CommonModule -->
<g id="node5" class="node">
<title>CommonModule</title>
<polygon fill="#8dd3c7" stroke="black" points="871.67,-122 868.67,-126 847.67,-126 844.67,-122 760.33,-122 760.33,-86 871.67,-86 871.67,-122"/>
<text text-anchor="middle" x="816" y="-99.8" font-family="Times,serif" font-size="14.00">CommonModule</text>
</g>
<!-- CommonModule&#45;&gt;AppModule -->
<g id="edge6" class="edge">
<title>CommonModule&#45;&gt;AppModule</title>
<path fill="none" stroke="black" d="M816,-122.11C816,-122.11 816,-140.99 816,-140.99"/>
<polygon fill="black" stroke="black" points="812.5,-140.99 816,-150.99 819.5,-140.99 812.5,-140.99"/>
</g>
<!-- GitHubSyncModule -->
<g id="node6" class="node">
<title>GitHubSyncModule</title>
<polygon fill="#8dd3c7" stroke="black" points="741.54,-122 738.54,-126 717.54,-126 714.54,-122 612.46,-122 612.46,-86 741.54,-86 741.54,-122"/>
<text text-anchor="middle" x="677" y="-99.8" font-family="Times,serif" font-size="14.00">GitHubSyncModule</text>
</g>
<!-- GitHubSyncModule&#45;&gt;AppModule -->
<g id="edge7" class="edge">
<title>GitHubSyncModule&#45;&gt;AppModule</title>
<path fill="none" stroke="black" d="M677,-122.24C677,-137.57 677,-157 677,-157 677,-157 764.3,-157 764.3,-157"/>
<polygon fill="black" stroke="black" points="764.3,-160.5 774.3,-157 764.3,-153.5 764.3,-160.5"/>
</g>
<!-- LabelModule -->
<g id="node7" class="node">
<title>LabelModule</title>
<polygon fill="#8dd3c7" stroke="black" points="594.92,-122 591.92,-126 570.92,-126 567.92,-122 503.08,-122 503.08,-86 594.92,-86 594.92,-122"/>
<text text-anchor="middle" x="549" y="-99.8" font-family="Times,serif" font-size="14.00">LabelModule</text>
</g>
<!-- LabelModule&#45;&gt;AppModule -->
<g id="edge8" class="edge">
<title>LabelModule&#45;&gt;AppModule</title>
<path fill="none" stroke="black" d="M549,-122.03C549,-139.06 549,-162 549,-162 549,-162 764.28,-162 764.28,-162"/>
<polygon fill="black" stroke="black" points="764.28,-165.5 774.28,-162 764.28,-158.5 764.28,-165.5"/>
</g>
<!-- ListModule -->
<g id="node8" class="node">
<title>ListModule</title>
<polygon fill="#8dd3c7" stroke="black" points="485.83,-122 482.83,-126 461.83,-126 458.83,-122 404.17,-122 404.17,-86 485.83,-86 485.83,-122"/>
<text text-anchor="middle" x="445" y="-99.8" font-family="Times,serif" font-size="14.00">ListModule</text>
</g>
<!-- ListModule&#45;&gt;AppModule -->
<g id="edge9" class="edge">
<title>ListModule&#45;&gt;AppModule</title>
<path fill="none" stroke="black" d="M445,-122.22C445,-140.83 445,-167 445,-167 445,-167 764.16,-167 764.16,-167"/>
<polygon fill="black" stroke="black" points="764.16,-170.5 774.16,-167 764.16,-163.5 764.16,-170.5"/>
</g>
<!-- PrismaModule -->
<g id="node9" class="node">
<title>PrismaModule</title>
<polygon fill="#8dd3c7" stroke="black" points="386.43,-122 383.43,-126 362.43,-126 359.43,-122 287.57,-122 287.57,-86 386.43,-86 386.43,-122"/>
<text text-anchor="middle" x="337" y="-99.8" font-family="Times,serif" font-size="14.00">PrismaModule</text>
</g>
<!-- PrismaModule&#45;&gt;AppModule -->
<g id="edge10" class="edge">
<title>PrismaModule&#45;&gt;AppModule</title>
<path fill="none" stroke="black" d="M337,-122.22C337,-142.37 337,-172 337,-172 337,-172 764.33,-172 764.33,-172"/>
<polygon fill="black" stroke="black" points="764.33,-175.5 774.33,-172 764.33,-168.5 764.33,-175.5"/>
</g>
<!-- WorkspaceModule -->
<g id="node10" class="node">
<title>WorkspaceModule</title>
<polygon fill="#8dd3c7" stroke="black" points="270.01,-122 267.01,-126 246.01,-126 243.01,-122 147.99,-122 147.99,-86 270.01,-86 270.01,-122"/>
<text text-anchor="middle" x="209" y="-99.8" font-family="Times,serif" font-size="14.00">WorkspaceModule</text>
</g>
<!-- WorkspaceModule&#45;&gt;AppModule -->
<g id="edge11" class="edge">
<title>WorkspaceModule&#45;&gt;AppModule</title>
<path fill="none" stroke="black" d="M209,-122.04C209,-143.66 209,-177 209,-177 209,-177 764.28,-177 764.28,-177"/>
<polygon fill="black" stroke="black" points="764.28,-180.5 774.28,-177 764.28,-173.5 764.28,-180.5"/>
</g>
<!-- WsAuthModule -->
<g id="node11" class="node">
<title>WsAuthModule</title>
<polygon fill="#8dd3c7" stroke="black" points="130.21,-122 127.21,-126 106.21,-126 103.21,-122 23.79,-122 23.79,-86 130.21,-86 130.21,-122"/>
<text text-anchor="middle" x="77" y="-99.8" font-family="Times,serif" font-size="14.00">WsAuthModule</text>
</g>
<!-- WsAuthModule&#45;&gt;AppModule -->
<g id="edge12" class="edge">
<title>WsAuthModule&#45;&gt;AppModule</title>
<path fill="none" stroke="black" d="M77,-122.09C77,-145.13 77,-182 77,-182 77,-182 764.15,-182 764.15,-182"/>
<polygon fill="black" stroke="black" points="764.15,-185.5 774.15,-182 764.15,-178.5 764.15,-185.5"/>
</g>
<!-- AppService -->
<g id="node13" class="node">
<title>AppService</title>
<ellipse fill="#fdb462" stroke="black" cx="1406" cy="-104" rx="56.74" ry="18"/>
<text text-anchor="middle" x="1406" y="-99.8" font-family="Times,serif" font-size="14.00">AppService</text>
</g>
<!-- AppService&#45;&gt;AppModule -->
<g id="edge13" class="edge">
<title>AppService&#45;&gt;AppModule</title>
<path fill="none" stroke="black" d="M1406,-122.09C1406,-145.13 1406,-182 1406,-182 1406,-182 867.96,-182 867.96,-182"/>
<polygon fill="black" stroke="black" points="867.96,-178.5 857.96,-182 867.96,-185.5 867.96,-178.5"/>
</g>
</g>
</svg>
