<?xml version="1.0" encoding="UTF-8" standalone="no"?>
<!DOCTYPE svg PUBLIC "-//W3C//DTD SVG 1.1//EN"
 "http://www.w3.org/Graphics/SVG/1.1/DTD/svg11.dtd">
<!-- Generated by graphviz version 2.47.0 (20210316.0004)
 -->
<!-- Title: dependencies Pages: 1 -->
<svg width="1621pt" height="439pt"
 viewBox="0.00 0.00 1621.00 439.00" xmlns="http://www.w3.org/2000/svg" xmlns:xlink="http://www.w3.org/1999/xlink">
<g id="graph0" class="graph" transform="scale(1 1) rotate(0) translate(4 435)">
<title>dependencies</title>
<polygon fill="white" stroke="transparent" points="-4,4 -4,-435 1617,-435 1617,4 -4,4"/>
<text text-anchor="start" x="785.51" y="-42.4" font-family="Times-12" font-weight="bold" font-size="14.00">Legend</text>
<polygon fill="#ffffb3" stroke="transparent" points="572.5,-10 572.5,-30 592.5,-30 592.5,-10 572.5,-10"/>
<text text-anchor="start" x="596.13" y="-15.4" font-family="Times-12" font-size="14.00"> &#160;Declarations</text>
<polygon fill="#8dd3c7" stroke="transparent" points="685.5,-10 685.5,-30 705.5,-30 705.5,-10 685.5,-10"/>
<text text-anchor="start" x="709.23" y="-15.4" font-family="Times-12" font-size="14.00"> &#160;Module</text>
<polygon fill="#80b1d3" stroke="transparent" points="771.5,-10 771.5,-30 791.5,-30 791.5,-10 771.5,-10"/>
<text text-anchor="start" x="795.28" y="-15.4" font-family="Times-12" font-size="14.00"> &#160;Bootstrap</text>
<polygon fill="#fdb462" stroke="transparent" points="868.5,-10 868.5,-30 888.5,-30 888.5,-10 868.5,-10"/>
<text text-anchor="start" x="892.17" y="-15.4" font-family="Times-12" font-size="14.00"> &#160;Providers</text>
<polygon fill="#fb8072" stroke="transparent" points="964.5,-10 964.5,-30 984.5,-30 984.5,-10 964.5,-10"/>
<text text-anchor="start" x="988.23" y="-15.4" font-family="Times-12" font-size="14.00"> &#160;Exports</text>
<g id="clust1" class="cluster">
<title>cluster_AppModule</title>
<polygon fill="none" stroke="black" stroke-dasharray="1,5" points="833,-146 833,-347 1347,-347 1347,-146 833,-146"/>
</g>
<g id="clust3" class="cluster">
<title>cluster_AppModule_imports</title>
<polygon fill="none" stroke="black" points="979,-154 979,-271 1339,-271 1339,-154 979,-154"/>
</g>
<g id="clust6" class="cluster">
<title>cluster_AppModule_providers</title>
<polygon fill="none" stroke="black" points="841,-219 841,-271 971,-271 971,-219 841,-219"/>
</g>
<g id="clust7" class="cluster">
<title>cluster_AuthModule</title>
<polygon fill="none" stroke="black" stroke-dasharray="1,5" points="884,-70 884,-138 1186,-138 1186,-70 884,-70"/>
</g>
<g id="clust12" class="cluster">
<title>cluster_AuthModule_providers</title>
<polygon fill="none" stroke="black" points="892,-78 892,-130 1178,-130 1178,-78 892,-78"/>
</g>
<g id="clust13" class="cluster">
<title>cluster_CommonModule</title>
<polygon fill="none" stroke="black" stroke-dasharray="1,5" points="1355,-287 1355,-355 1605,-355 1605,-287 1355,-287"/>
</g>
<g id="clust16" class="cluster">
<title>cluster_CommonModule_exports</title>
<polygon fill="none" stroke="black" points="1363,-295 1363,-347 1597,-347 1597,-295 1363,-295"/>
</g>
<g id="clust19" class="cluster">
<title>cluster_PrismaModule</title>
<polygon fill="none" stroke="black" stroke-dasharray="1,5" points="1355,-211 1355,-279 1487,-279 1487,-211 1355,-211"/>
</g>
<g id="clust22" class="cluster">
<title>cluster_PrismaModule_exports</title>
<polygon fill="none" stroke="black" points="1363,-219 1363,-271 1479,-271 1479,-219 1363,-219"/>
</g>
<g id="clust25" class="cluster">
<title>cluster_TemplatePlaygroundModule</title>
<polygon fill="none" stroke="black" stroke-dasharray="1,5" points="8,-211 8,-423 825,-423 825,-211 8,-211"/>
</g>
<g id="clust26" class="cluster">
<title>cluster_TemplatePlaygroundModule_declarations</title>
<polygon fill="none" stroke="black" points="603,-219 603,-271 817,-271 817,-219 603,-219"/>
</g>
<g id="clust30" class="cluster">
<title>cluster_TemplatePlaygroundModule_bootstrap</title>
<polygon fill="none" stroke="black" points="395,-363 395,-415 613,-415 613,-363 395,-363"/>
</g>
<g id="clust31" class="cluster">
<title>cluster_TemplatePlaygroundModule_providers</title>
<polygon fill="none" stroke="black" points="16,-219 16,-271 595,-271 595,-219 16,-219"/>
</g>
<g id="clust32" class="cluster">
<title>cluster_WorkspaceModule</title>
<polygon fill="none" stroke="black" stroke-dasharray="1,5" points="1194,-70 1194,-138 1392,-138 1392,-70 1194,-70"/>
</g>
<g id="clust37" class="cluster">
<title>cluster_WorkspaceModule_providers</title>
<polygon fill="none" stroke="black" points="1202,-78 1202,-130 1384,-130 1384,-78 1202,-78"/>
</g>
<!-- AuthModule -->
<g id="node1" class="node">
<title>AuthModule</title>
<polygon fill="#8dd3c7" stroke="black" points="1074.55,-198 1071.55,-202 1050.55,-202 1047.55,-198 987.45,-198 987.45,-162 1074.55,-162 1074.55,-198"/>
<text text-anchor="middle" x="1031" y="-175.8" font-family="Times,serif" font-size="14.00">AuthModule</text>
</g>
<!-- AppModule -->
<g id="node5" class="node">
<title>AppModule</title>
<polygon fill="#8dd3c7" stroke="black" points="1195.66,-339 1192.66,-343 1171.66,-343 1168.66,-339 1112.34,-339 1112.34,-303 1195.66,-303 1195.66,-339"/>
<text text-anchor="middle" x="1154" y="-316.8" font-family="Times,serif" font-size="14.00">AppModule</text>
</g>
<!-- AuthModule&#45;&gt;AppModule -->
<g id="edge1" class="edge">
<title>AuthModule&#45;&gt;AppModule</title>
<path fill="none" stroke="black" d="M1031,-198.14C1031,-236.23 1031,-321 1031,-321 1031,-321 1102.01,-321 1102.01,-321"/>
<polygon fill="black" stroke="black" points="1102.01,-324.5 1112.01,-321 1102.01,-317.5 1102.01,-324.5"/>
</g>
<!-- CommonModule -->
<g id="node2" class="node">
<title>CommonModule</title>
<polygon fill="#8dd3c7" stroke="black" points="1330.67,-263 1327.67,-267 1306.67,-267 1303.67,-263 1219.33,-263 1219.33,-227 1330.67,-227 1330.67,-263"/>
<text text-anchor="middle" x="1275" y="-240.8" font-family="Times,serif" font-size="14.00">CommonModule</text>
</g>
<!-- CommonModule&#45;&gt;AppModule -->
<g id="edge2" class="edge">
<title>CommonModule&#45;&gt;AppModule</title>
<path fill="none" stroke="black" d="M1219.21,-254C1198.11,-254 1179.1,-254 1179.1,-254 1179.1,-254 1179.1,-292.69 1179.1,-292.69"/>
<polygon fill="black" stroke="black" points="1175.6,-292.69 1179.1,-302.69 1182.6,-292.69 1175.6,-292.69"/>
</g>
<!-- AuthGuard  -->
<g id="node9" class="node">
<title>AuthGuard </title>
<polygon fill="#fb8072" stroke="black" points="1589.48,-339 1506.52,-339 1506.52,-303 1589.48,-303 1589.48,-339"/>
<text text-anchor="middle" x="1548" y="-316.8" font-family="Times,serif" font-size="14.00">AuthGuard </text>
</g>
<!-- CommonModule&#45;&gt;AuthGuard  -->
<g id="edge9" class="edge">
<title>CommonModule&#45;&gt;AuthGuard </title>
<path fill="none" stroke="black" stroke-dasharray="5,2" d="M1256.39,-263.11C1256.39,-272.9 1256.39,-283 1256.39,-283 1256.39,-283 1548,-283 1548,-283 1548,-283 1548,-292.89 1548,-292.89"/>
<polygon fill="black" stroke="black" points="1544.5,-292.89 1548,-302.89 1551.5,-292.89 1544.5,-292.89"/>
</g>
<!-- WorkspaceGuard  -->
<g id="node10" class="node">
<title>WorkspaceGuard </title>
<polygon fill="#fb8072" stroke="black" points="1488.95,-339 1371.05,-339 1371.05,-303 1488.95,-303 1488.95,-339"/>
<text text-anchor="middle" x="1430" y="-316.8" font-family="Times,serif" font-size="14.00">WorkspaceGuard </text>
</g>
<!-- CommonModule&#45;&gt;WorkspaceGuard  -->
<g id="edge10" class="edge">
<title>CommonModule&#45;&gt;WorkspaceGuard </title>
<path fill="none" stroke="black" stroke-dasharray="5,2" d="M1293.61,-263.01C1293.61,-285.49 1293.61,-321 1293.61,-321 1293.61,-321 1360.97,-321 1360.97,-321"/>
<polygon fill="black" stroke="black" points="1360.97,-324.5 1370.97,-321 1360.97,-317.5 1360.97,-324.5"/>
</g>
<!-- TemplatePlaygroundModule -->
<g id="node13" class="node">
<title>TemplatePlaygroundModule</title>
<polygon fill="#8dd3c7" stroke="black" points="592.47,-339 589.47,-343 568.47,-343 565.47,-339 415.53,-339 415.53,-303 592.47,-303 592.47,-339"/>
<text text-anchor="middle" x="504" y="-316.8" font-family="Times,serif" font-size="14.00">TemplatePlaygroundModule</text>
</g>
<!-- CommonModule&#45;&gt;TemplatePlaygroundModule -->
<g id="edge14" class="edge">
<title>CommonModule&#45;&gt;TemplatePlaygroundModule</title>
<path fill="none" stroke="black" d="M1218.98,-236C1168.6,-236 1102.46,-236 1102.46,-236 1102.46,-236 1102.46,-330 1102.46,-330 1102.46,-330 602.63,-330 602.63,-330"/>
<polygon fill="black" stroke="black" points="602.63,-326.5 592.63,-330 602.63,-333.5 602.63,-326.5"/>
</g>
<!-- PrismaModule -->
<g id="node3" class="node">
<title>PrismaModule</title>
<polygon fill="#8dd3c7" stroke="black" points="1331.43,-198 1328.43,-202 1307.43,-202 1304.43,-198 1232.57,-198 1232.57,-162 1331.43,-162 1331.43,-198"/>
<text text-anchor="middle" x="1282" y="-175.8" font-family="Times,serif" font-size="14.00">PrismaModule</text>
</g>
<!-- PrismaModule&#45;&gt;CommonModule -->
<g id="edge8" class="edge">
<title>PrismaModule&#45;&gt;CommonModule</title>
<path fill="none" stroke="black" d="M1298.15,-198.11C1298.15,-198.11 1298.15,-216.99 1298.15,-216.99"/>
<polygon fill="black" stroke="black" points="1294.65,-216.99 1298.15,-226.99 1301.65,-216.99 1294.65,-216.99"/>
</g>
<!-- PrismaModule&#45;&gt;AppModule -->
<g id="edge3" class="edge">
<title>PrismaModule&#45;&gt;AppModule</title>
<path fill="none" stroke="black" d="M1265.47,-198.04C1265.47,-205.75 1265.47,-213 1265.47,-213 1265.47,-213 1162.37,-213 1162.37,-213 1162.37,-213 1162.37,-292.68 1162.37,-292.68"/>
<polygon fill="black" stroke="black" points="1158.87,-292.68 1162.37,-302.68 1165.87,-292.68 1158.87,-292.68"/>
</g>
<!-- PrismaService  -->
<g id="node11" class="node">
<title>PrismaService </title>
<polygon fill="#fb8072" stroke="black" points="1471.36,-263 1370.64,-263 1370.64,-227 1471.36,-227 1471.36,-263"/>
<text text-anchor="middle" x="1421" y="-240.8" font-family="Times,serif" font-size="14.00">PrismaService </text>
</g>
<!-- PrismaModule&#45;&gt;PrismaService  -->
<g id="edge11" class="edge">
<title>PrismaModule&#45;&gt;PrismaService </title>
<path fill="none" stroke="black" stroke-dasharray="5,2" d="M1331.6,-180C1372.49,-180 1423.8,-180 1423.8,-180 1423.8,-180 1423.8,-216.89 1423.8,-216.89"/>
<polygon fill="black" stroke="black" points="1420.3,-216.89 1423.8,-226.89 1427.3,-216.89 1420.3,-216.89"/>
</g>
<!-- WorkspaceModule -->
<g id="node4" class="node">
<title>WorkspaceModule</title>
<polygon fill="#8dd3c7" stroke="black" points="1215.01,-198 1212.01,-202 1191.01,-202 1188.01,-198 1092.99,-198 1092.99,-162 1215.01,-162 1215.01,-198"/>
<text text-anchor="middle" x="1154" y="-175.8" font-family="Times,serif" font-size="14.00">WorkspaceModule</text>
</g>
<!-- WorkspaceModule&#45;&gt;AppModule -->
<g id="edge4" class="edge">
<title>WorkspaceModule&#45;&gt;AppModule</title>
<path fill="none" stroke="black" d="M1145.63,-198.14C1145.63,-198.14 1145.63,-292.93 1145.63,-292.93"/>
<polygon fill="black" stroke="black" points="1142.13,-292.92 1145.63,-302.93 1149.13,-292.93 1142.13,-292.92"/>
</g>
<!-- AppService -->
<g id="node6" class="node">
<title>AppService</title>
<ellipse fill="#fdb462" stroke="black" cx="906" cy="-245" rx="56.74" ry="18"/>
<text text-anchor="middle" x="906" y="-240.8" font-family="Times,serif" font-size="14.00">AppService</text>
</g>
<!-- AppService&#45;&gt;AppModule -->
<g id="edge5" class="edge">
<title>AppService&#45;&gt;AppModule</title>
<path fill="none" stroke="black" d="M962.82,-245C1028.87,-245 1128.9,-245 1128.9,-245 1128.9,-245 1128.9,-292.99 1128.9,-292.99"/>
<polygon fill="black" stroke="black" points="1125.4,-292.99 1128.9,-302.99 1132.4,-292.99 1125.4,-292.99"/>
</g>
<!-- AuthService -->
<g id="node7" class="node">
<title>AuthService</title>
<ellipse fill="#fdb462" stroke="black" cx="959" cy="-104" rx="59.11" ry="18"/>
<text text-anchor="middle" x="959" y="-99.8" font-family="Times,serif" font-size="14.00">AuthService</text>
</g>
<!-- AuthService&#45;&gt;AuthModule -->
<g id="edge6" class="edge">
<title>AuthService&#45;&gt;AuthModule</title>
<path fill="none" stroke="black" d="M1002.77,-116.21C1002.77,-116.21 1002.77,-151.86 1002.77,-151.86"/>
<polygon fill="black" stroke="black" points="999.27,-151.86 1002.77,-161.86 1006.27,-151.86 999.27,-151.86"/>
</g>
<!-- PrismaService -->
<g id="node8" class="node">
<title>PrismaService</title>
<ellipse fill="#fdb462" stroke="black" cx="1103" cy="-104" rx="66.63" ry="18"/>
<text text-anchor="middle" x="1103" y="-99.8" font-family="Times,serif" font-size="14.00">PrismaService</text>
</g>
<!-- PrismaService&#45;&gt;AuthModule -->
<g id="edge7" class="edge">
<title>PrismaService&#45;&gt;AuthModule</title>
<path fill="none" stroke="black" d="M1055.48,-116.89C1055.48,-116.89 1055.48,-151.91 1055.48,-151.91"/>
<polygon fill="black" stroke="black" points="1051.98,-151.91 1055.48,-161.91 1058.98,-151.91 1051.98,-151.91"/>
</g>
<!-- PrismaService&#45;&gt;PrismaModule -->
<g id="edge12" class="edge">
<title>PrismaService&#45;&gt;PrismaModule</title>
<path fill="none" stroke="black" d="M1131.28,-120.34C1131.28,-130.64 1131.28,-142 1131.28,-142 1131.28,-142 1282,-142 1282,-142 1282,-142 1282,-151.89 1282,-151.89"/>
<polygon fill="black" stroke="black" points="1278.5,-151.89 1282,-161.89 1285.5,-151.89 1278.5,-151.89"/>
</g>
<!-- TemplatePlaygroundComponent -->
<g id="node12" class="node">
<title>TemplatePlaygroundComponent</title>
<polygon fill="#ffffb3" stroke="black" points="809.25,-263 610.75,-263 610.75,-227 809.25,-227 809.25,-263"/>
<text text-anchor="middle" x="710" y="-240.8" font-family="Times,serif" font-size="14.00">TemplatePlaygroundComponent</text>
</g>
<!-- TemplatePlaygroundComponent&#45;&gt;TemplatePlaygroundModule -->
<g id="edge13" class="edge">
<title>TemplatePlaygroundComponent&#45;&gt;TemplatePlaygroundModule</title>
<path fill="none" stroke="black" d="M710,-263.31C710,-283.15 710,-312 710,-312 710,-312 602.56,-312 602.56,-312"/>
<polygon fill="black" stroke="black" points="602.56,-308.5 592.56,-312 602.56,-315.5 602.56,-308.5"/>
</g>
<!-- TemplatePlaygroundComponent  -->
<g id="node14" class="node">
<title>TemplatePlaygroundComponent </title>
<polygon fill="#80b1d3" stroke="black" points="605.25,-407 402.75,-407 402.75,-371 605.25,-371 605.25,-407"/>
<text text-anchor="middle" x="504" y="-384.8" font-family="Times,serif" font-size="14.00">TemplatePlaygroundComponent </text>
</g>
<!-- TemplatePlaygroundModule&#45;&gt;TemplatePlaygroundComponent  -->
<g id="edge15" class="edge">
<title>TemplatePlaygroundModule&#45;&gt;TemplatePlaygroundComponent </title>
<path fill="none" stroke="black" stroke-dasharray="1,5" d="M504,-339.22C504,-339.22 504,-360.73 504,-360.73"/>
<polygon fill="black" stroke="black" points="500.5,-360.73 504,-370.73 507.5,-360.73 500.5,-360.73"/>
</g>
<!-- HbsRenderService -->
<g id="node15" class="node">
<title>HbsRenderService</title>
<ellipse fill="#fdb462" stroke="black" cx="504" cy="-245" rx="83.37" ry="18"/>
<text text-anchor="middle" x="504" y="-240.8" font-family="Times,serif" font-size="14.00">HbsRenderService</text>
</g>
<!-- HbsRenderService&#45;&gt;TemplatePlaygroundModule -->
<g id="edge16" class="edge">
<title>HbsRenderService&#45;&gt;TemplatePlaygroundModule</title>
<path fill="none" stroke="black" d="M504,-263.01C504,-263.01 504,-292.85 504,-292.85"/>
<polygon fill="black" stroke="black" points="500.5,-292.85 504,-302.85 507.5,-292.85 500.5,-292.85"/>
</g>
<!-- TemplateEditorService -->
<g id="node16" class="node">
<title>TemplateEditorService</title>
<ellipse fill="#fdb462" stroke="black" cx="302" cy="-245" rx="100.7" ry="18"/>
<text text-anchor="middle" x="302" y="-240.8" font-family="Times,serif" font-size="14.00">TemplateEditorService</text>
</g>
<!-- TemplateEditorService&#45;&gt;TemplatePlaygroundModule -->
<g id="edge17" class="edge">
<title>TemplateEditorService&#45;&gt;TemplatePlaygroundModule</title>
<path fill="none" stroke="black" d="M302,-263.03C302,-283.77 302,-315 302,-315 302,-315 405.4,-315 405.4,-315"/>
<polygon fill="black" stroke="black" points="405.4,-318.5 415.4,-315 405.4,-311.5 405.4,-318.5"/>
</g>
<!-- ZipExportService -->
<g id="node17" class="node">
<title>ZipExportService</title>
<ellipse fill="#fdb462" stroke="black" cx="104" cy="-245" rx="79.87" ry="18"/>
<text text-anchor="middle" x="104" y="-240.8" font-family="Times,serif" font-size="14.00">ZipExportService</text>
</g>
<!-- ZipExportService&#45;&gt;TemplatePlaygroundModule -->
<g id="edge18" class="edge">
<title>ZipExportService&#45;&gt;TemplatePlaygroundModule</title>
<path fill="none" stroke="black" d="M104,-263.2C104,-287.36 104,-327 104,-327 104,-327 405.23,-327 405.23,-327"/>
<polygon fill="black" stroke="black" points="405.23,-330.5 415.23,-327 405.23,-323.5 405.23,-330.5"/>
</g>
<!-- WorkspaceService -->
<g id="node18" class="node">
<title>WorkspaceService</title>
<ellipse fill="#fdb462" stroke="black" cx="1293" cy="-104" rx="83.35" ry="18"/>
<text text-anchor="middle" x="1293" y="-99.8" font-family="Times,serif" font-size="14.00">WorkspaceService</text>
</g>
<!-- WorkspaceService&#45;&gt;WorkspaceModule -->
<g id="edge19" class="edge">
<title>WorkspaceService&#45;&gt;WorkspaceModule</title>
<path fill="none" stroke="black" d="M1225.97,-114.89C1225.97,-135.9 1225.97,-180 1225.97,-180 1225.97,-180 1224.88,-180 1224.88,-180"/>
<polygon fill="black" stroke="black" points="1225.04,-176.5 1215.04,-180 1225.04,-183.5 1225.04,-176.5"/>
</g>
</g>
</svg>
