<?xml version="1.0" encoding="UTF-8" standalone="no"?>
<!DOCTYPE svg PUBLIC "-//W3C//DTD SVG 1.1//EN"
 "http://www.w3.org/Graphics/SVG/1.1/DTD/svg11.dtd">
<!-- Generated by graphviz version 2.47.0 (20210316.0004)
 -->
<!-- Title: dependencies Pages: 1 -->
<svg width="504pt" height="284pt"
 viewBox="0.00 0.00 504.00 284.00" xmlns="http://www.w3.org/2000/svg" xmlns:xlink="http://www.w3.org/1999/xlink">
<g id="graph0" class="graph" transform="scale(1 1) rotate(0) translate(4 280)">
<title>dependencies</title>
<polygon fill="white" stroke="transparent" points="-4,4 -4,-280 500,-280 500,4 -4,4"/>
<text text-anchor="start" x="227.01" y="-42.4" font-family="Times-12" font-weight="bold" font-size="14.00">Legend</text>
<polygon fill="#ffffb3" stroke="transparent" points="14,-10 14,-30 34,-30 34,-10 14,-10"/>
<text text-anchor="start" x="37.63" y="-15.4" font-family="Times-12" font-size="14.00"> &#160;Declarations</text>
<polygon fill="#8dd3c7" stroke="transparent" points="127,-10 127,-30 147,-30 147,-10 127,-10"/>
<text text-anchor="start" x="150.73" y="-15.4" font-family="Times-12" font-size="14.00"> &#160;Module</text>
<polygon fill="#80b1d3" stroke="transparent" points="213,-10 213,-30 233,-30 233,-10 213,-10"/>
<text text-anchor="start" x="236.78" y="-15.4" font-family="Times-12" font-size="14.00"> &#160;Bootstrap</text>
<polygon fill="#fdb462" stroke="transparent" points="310,-10 310,-30 330,-30 330,-10 310,-10"/>
<text text-anchor="start" x="333.67" y="-15.4" font-family="Times-12" font-size="14.00"> &#160;Providers</text>
<polygon fill="#fb8072" stroke="transparent" points="406,-10 406,-30 426,-30 426,-10 406,-10"/>
<text text-anchor="start" x="429.73" y="-15.4" font-family="Times-12" font-size="14.00"> &#160;Exports</text>
<g id="clust1" class="cluster">
<title>cluster_GitHubSyncModule</title>
<polygon fill="none" stroke="black" stroke-dasharray="1,5" points="83,-70 83,-268 413,-268 413,-70 83,-70"/>
</g>
<g id="clust3" class="cluster">
<title>cluster_GitHubSyncModule_imports</title>
<polygon fill="none" stroke="black" points="291,-78 291,-130 405,-130 405,-78 291,-78"/>
</g>
<g id="clust4" class="cluster">
<title>cluster_GitHubSyncModule_exports</title>
<polygon fill="none" stroke="black" points="185,-208 185,-260 333,-260 333,-208 185,-208"/>
</g>
<g id="clust6" class="cluster">
<title>cluster_GitHubSyncModule_providers</title>
<polygon fill="none" stroke="black" points="91,-78 91,-130 283,-130 283,-78 91,-78"/>
</g>
<!-- PrismaModule -->
<g id="node1" class="node">
<title>PrismaModule</title>
<polygon fill="#8dd3c7" stroke="black" points="397.43,-122 394.43,-126 373.43,-126 370.43,-122 298.57,-122 298.57,-86 397.43,-86 397.43,-122"/>
<text text-anchor="middle" x="348" y="-99.8" font-family="Times,serif" font-size="14.00">PrismaModule</text>
</g>
<!-- GitHubSyncModule -->
<g id="node2" class="node">
<title>GitHubSyncModule</title>
<polygon fill="#8dd3c7" stroke="black" points="323.54,-187 320.54,-191 299.54,-191 296.54,-187 194.46,-187 194.46,-151 323.54,-151 323.54,-187"/>
<text text-anchor="middle" x="259" y="-164.8" font-family="Times,serif" font-size="14.00">GitHubSyncModule</text>
</g>
<!-- PrismaModule&#45;&gt;GitHubSyncModule -->
<g id="edge1" class="edge">
<title>PrismaModule&#45;&gt;GitHubSyncModule</title>
<path fill="none" stroke="black" d="M311.28,-122.11C311.28,-122.11 311.28,-140.99 311.28,-140.99"/>
<polygon fill="black" stroke="black" points="307.78,-140.99 311.28,-150.99 314.78,-140.99 307.78,-140.99"/>
</g>
<!-- GitHubSyncService  -->
<g id="node3" class="node">
<title>GitHubSyncService </title>
<polygon fill="#fb8072" stroke="black" points="324.97,-252 193.03,-252 193.03,-216 324.97,-216 324.97,-252"/>
<text text-anchor="middle" x="259" y="-229.8" font-family="Times,serif" font-size="14.00">GitHubSyncService </text>
</g>
<!-- GitHubSyncModule&#45;&gt;GitHubSyncService  -->
<g id="edge2" class="edge">
<title>GitHubSyncModule&#45;&gt;GitHubSyncService </title>
<path fill="none" stroke="black" stroke-dasharray="5,2" d="M259,-187.11C259,-187.11 259,-205.99 259,-205.99"/>
<polygon fill="black" stroke="black" points="255.5,-205.99 259,-215.99 262.5,-205.99 255.5,-205.99"/>
</g>
<!-- GitHubSyncService -->
<g id="node4" class="node">
<title>GitHubSyncService</title>
<ellipse fill="#fdb462" stroke="black" cx="187" cy="-104" rx="88.04" ry="18"/>
<text text-anchor="middle" x="187" y="-99.8" font-family="Times,serif" font-size="14.00">GitHubSyncService</text>
</g>
<!-- GitHubSyncService&#45;&gt;GitHubSyncModule -->
<g id="edge3" class="edge">
<title>GitHubSyncService&#45;&gt;GitHubSyncModule</title>
<path fill="none" stroke="black" d="M234.75,-119.4C234.75,-119.4 234.75,-140.94 234.75,-140.94"/>
<polygon fill="black" stroke="black" points="231.25,-140.94 234.75,-150.94 238.25,-140.94 231.25,-140.94"/>
</g>
</g>
</svg>
