<?xml version="1.0" encoding="UTF-8" standalone="no"?>
<!DOCTYPE svg PUBLIC "-//W3C//DTD SVG 1.1//EN"
 "http://www.w3.org/Graphics/SVG/1.1/DTD/svg11.dtd">
<!-- Generated by graphviz version 2.47.0 (20210316.0004)
 -->
<!-- Title: dependencies Pages: 1 -->
<svg width="504pt" height="284pt"
 viewBox="0.00 0.00 504.00 284.00" xmlns="http://www.w3.org/2000/svg" xmlns:xlink="http://www.w3.org/1999/xlink">
<g id="graph0" class="graph" transform="scale(1 1) rotate(0) translate(4 280)">
<title>dependencies</title>
<polygon fill="white" stroke="transparent" points="-4,4 -4,-280 500,-280 500,4 -4,4"/>
<text text-anchor="start" x="227.01" y="-42.4" font-family="Times-12" font-weight="bold" font-size="14.00">Legend</text>
<polygon fill="#ffffb3" stroke="transparent" points="14,-10 14,-30 34,-30 34,-10 14,-10"/>
<text text-anchor="start" x="37.63" y="-15.4" font-family="Times-12" font-size="14.00"> &#160;Declarations</text>
<polygon fill="#8dd3c7" stroke="transparent" points="127,-10 127,-30 147,-30 147,-10 127,-10"/>
<text text-anchor="start" x="150.73" y="-15.4" font-family="Times-12" font-size="14.00"> &#160;Module</text>
<polygon fill="#80b1d3" stroke="transparent" points="213,-10 213,-30 233,-30 233,-10 213,-10"/>
<text text-anchor="start" x="236.78" y="-15.4" font-family="Times-12" font-size="14.00"> &#160;Bootstrap</text>
<polygon fill="#fdb462" stroke="transparent" points="310,-10 310,-30 330,-30 330,-10 310,-10"/>
<text text-anchor="start" x="333.67" y="-15.4" font-family="Times-12" font-size="14.00"> &#160;Providers</text>
<polygon fill="#fb8072" stroke="transparent" points="406,-10 406,-30 426,-30 426,-10 406,-10"/>
<text text-anchor="start" x="429.73" y="-15.4" font-family="Times-12" font-size="14.00"> &#160;Exports</text>
<g id="clust1" class="cluster">
<title>cluster_CommonModule</title>
<polygon fill="none" stroke="black" stroke-dasharray="1,5" points="123,-70 123,-268 373,-268 373,-70 123,-70"/>
</g>
<g id="clust4" class="cluster">
<title>cluster_CommonModule_exports</title>
<polygon fill="none" stroke="black" points="131,-208 131,-260 365,-260 365,-208 131,-208"/>
</g>
<g id="clust3" class="cluster">
<title>cluster_CommonModule_imports</title>
<polygon fill="none" stroke="black" points="196,-78 196,-130 310,-130 310,-78 196,-78"/>
</g>
<!-- PrismaModule -->
<g id="node1" class="node">
<title>PrismaModule</title>
<polygon fill="#8dd3c7" stroke="black" points="302.43,-122 299.43,-126 278.43,-126 275.43,-122 203.57,-122 203.57,-86 302.43,-86 302.43,-122"/>
<text text-anchor="middle" x="253" y="-99.8" font-family="Times,serif" font-size="14.00">PrismaModule</text>
</g>
<!-- CommonModule -->
<g id="node2" class="node">
<title>CommonModule</title>
<polygon fill="#8dd3c7" stroke="black" points="308.67,-187 305.67,-191 284.67,-191 281.67,-187 197.33,-187 197.33,-151 308.67,-151 308.67,-187"/>
<text text-anchor="middle" x="253" y="-164.8" font-family="Times,serif" font-size="14.00">CommonModule</text>
</g>
<!-- PrismaModule&#45;&gt;CommonModule -->
<g id="edge1" class="edge">
<title>PrismaModule&#45;&gt;CommonModule</title>
<path fill="none" stroke="black" d="M253,-122.11C253,-122.11 253,-140.99 253,-140.99"/>
<polygon fill="black" stroke="black" points="249.5,-140.99 253,-150.99 256.5,-140.99 249.5,-140.99"/>
</g>
<!-- AuthGuard  -->
<g id="node3" class="node">
<title>AuthGuard </title>
<polygon fill="#fb8072" stroke="black" points="357.48,-252 274.52,-252 274.52,-216 357.48,-216 357.48,-252"/>
<text text-anchor="middle" x="316" y="-229.8" font-family="Times,serif" font-size="14.00">AuthGuard </text>
</g>
<!-- CommonModule&#45;&gt;AuthGuard  -->
<g id="edge2" class="edge">
<title>CommonModule&#45;&gt;AuthGuard </title>
<path fill="none" stroke="black" stroke-dasharray="5,2" d="M291.8,-187.11C291.8,-187.11 291.8,-205.99 291.8,-205.99"/>
<polygon fill="black" stroke="black" points="288.3,-205.99 291.8,-215.99 295.3,-205.99 288.3,-205.99"/>
</g>
<!-- WorkspaceGuard  -->
<g id="node4" class="node">
<title>WorkspaceGuard </title>
<polygon fill="#fb8072" stroke="black" points="256.95,-252 139.05,-252 139.05,-216 256.95,-216 256.95,-252"/>
<text text-anchor="middle" x="198" y="-229.8" font-family="Times,serif" font-size="14.00">WorkspaceGuard </text>
</g>
<!-- CommonModule&#45;&gt;WorkspaceGuard  -->
<g id="edge3" class="edge">
<title>CommonModule&#45;&gt;WorkspaceGuard </title>
<path fill="none" stroke="black" stroke-dasharray="5,2" d="M226.94,-187.11C226.94,-187.11 226.94,-205.99 226.94,-205.99"/>
<polygon fill="black" stroke="black" points="223.44,-205.99 226.94,-215.99 230.44,-205.99 223.44,-205.99"/>
</g>
</g>
</svg>
